<svg width="10" height="20" viewBox="0 0 10 20" fill="none" xmlns="http://www.w3.org/2000/svg">
<path d="M2.10001 3.83962C2.10001 4.33505 2.10001 6.56451 2.10001 6.56451H0V9.90869H2.10001V19.8174H6.43127V9.90869H9.31877C9.31877 9.90869 9.58127 8.29853 9.71252 6.56451C9.31877 6.56451 6.43127 6.56451 6.43127 6.56451C6.43127 6.56451 6.43127 4.58277 6.43127 4.33505C6.43127 3.96348 6.95627 3.5919 7.35002 3.5919C7.87502 3.5919 8.79377 3.5919 9.71252 3.5919C9.71252 3.09647 9.71252 1.61016 9.71252 0.123859C8.53127 0 7.21877 0 6.56252 0C1.96876 0 2.10001 3.34418 2.10001 3.83962Z" fill="white"/>
</svg>
