<svg width="23" height="22" viewBox="0 0 23 22" fill="none" xmlns="http://www.w3.org/2000/svg">
<path d="M15.4429 0.289062H6.55702C2.93906 0.297171 0.00859373 3.06227 0 6.47607V14.8687C0.00859373 18.2825 2.93906 21.0476 6.55702 21.0557H15.4515C19.0695 21.0557 22 18.2825 22.0085 14.8687V6.47607C21.9914 3.06227 19.0609 0.297171 15.4429 0.289062ZM19.7914 14.8605C19.7914 17.1229 17.8492 18.9555 15.4515 18.9555H6.55702C4.15937 18.9555 2.21718 17.1229 2.21718 14.8605V6.47607C2.21718 4.21372 4.15937 2.38113 6.55702 2.38113H15.4515C17.8492 2.38113 19.7914 4.21372 19.7914 6.47607V14.8605Z" fill="white"/>
<path d="M11 5.30371C7.85471 5.30371 5.31096 7.70457 5.30237 10.6732C5.30237 13.6418 7.84612 16.0427 10.9914 16.0508C14.1367 16.0508 16.6805 13.6499 16.6891 10.6813C16.6891 10.6813 16.6891 10.6813 16.6891 10.6732C16.6805 7.71268 14.1367 5.31182 11 5.30371ZM11 13.95C9.08362 13.95 7.52815 12.4819 7.52815 10.6732C7.52815 8.86444 9.08362 7.39635 11 7.39635C12.9164 7.39635 14.4719 8.86444 14.4719 10.6732C14.4719 12.4819 12.9164 13.95 11 13.95Z" fill="white"/>
<path d="M16.7235 6.63477C17.5018 6.63477 18.1328 6.0384 18.1328 5.30273C18.1328 4.56707 17.5018 3.9707 16.7235 3.9707C15.9451 3.9707 15.3141 4.56707 15.3141 5.30273C15.3141 6.0384 15.9451 6.63477 16.7235 6.63477Z" fill="white"/>
</svg>
