<svg width="21" height="20" viewBox="0 0 21 20" fill="none" xmlns="http://www.w3.org/2000/svg">
<path d="M20.915 12.2105V19.4878H16.4706V12.7039C16.4706 10.9771 15.817 9.86699 14.2484 9.86699C13.0719 9.86699 12.2876 10.607 11.8954 11.4705C11.7647 11.5938 11.7647 11.9638 11.7647 12.3339V19.4878H7.32026C7.32026 19.4878 7.32026 8.01683 7.32026 6.78339H11.7647V8.63355C12.4183 7.77014 13.4641 6.53671 15.817 6.53671C18.6928 6.41336 20.915 8.26352 20.915 12.2105ZM2.48366 0.616211C0.915035 0.616211 0 1.60296 0 2.8364C0 4.06983 0.915035 5.05658 2.48366 5.05658C4.05229 5.05658 4.96733 4.06983 4.96733 2.8364C4.96733 1.60296 4.05229 0.616211 2.48366 0.616211ZM0.261434 19.4878H4.70588V6.78339H0.261434V19.4878Z" fill="white"/>
</svg>
