<svg width="315" height="67" viewBox="0 0 315 67" fill="none" xmlns="http://www.w3.org/2000/svg">
<path d="M76.014 34.3365H70.8392V39.418H67.4126V22.1936C70.2797 22.1936 73.1469 22.1936 76.014 22.1936C84.965 22.1276 84.965 34.3365 76.014 34.3365ZM70.8392 31.3667H76.014C80.4196 31.3667 80.4196 25.2293 76.014 25.2293H70.8392V31.3667Z" fill="#C3E5D3"/>
<path d="M107.552 36.1842H97.972L96.4335 39.418H92.7272L100.909 22.1934H104.685L112.867 39.418H109.091L107.552 36.1842ZM102.797 25.7571L99.3706 33.0825H106.154L102.797 25.7571Z" fill="#C3E5D3"/>
<path d="M140.14 39.4106H136.014L130.699 33.6704H127.413V39.4106H123.986V22.124C126.853 22.124 129.79 22.124 132.657 22.124C136.993 22.124 139.231 24.8292 139.231 27.8642C139.231 30.2395 138.112 32.6148 134.615 33.2746L140.14 39.1467V39.4106ZM127.413 25.1591V30.7014H132.657C134.825 30.7014 135.804 29.3158 135.804 27.9302C135.804 26.5446 134.825 25.1591 132.657 25.1591H127.413Z" fill="#C3E5D3"/>
<path d="M165.734 22.2594L157.622 30.5087L166.434 39.22V39.418H162.168L154.545 31.7626V39.418H151.049V22.1934H154.476V29.5188L161.399 22.1934H165.664V22.2594H165.734Z" fill="#C3E5D3"/>
<path d="M201.119 34.3367H195.944V39.4175H192.517V22.1956C195.385 22.1956 198.252 22.1956 201.119 22.1956C210.07 22.1296 210.07 34.3367 201.119 34.3367ZM195.944 31.3674H201.119C205.525 31.3674 205.525 25.2309 201.119 25.2309H195.944V31.3674Z" fill="#C3E5D3"/>
<path d="M223.147 22.1934V36.4477H232.518V39.4834H219.65V22.1934H223.147Z" fill="#C3E5D3"/>
<path d="M257.483 36.1842H247.902L246.364 39.418H242.657L250.839 22.1934H254.615L262.797 39.418H259.021L257.483 36.1842ZM252.727 25.7571L249.301 33.0825H256.084L252.727 25.7571Z" fill="#C3E5D3"/>
<path d="M288.881 37.2157C286.993 38.9973 284.546 39.7891 281.958 39.7891C275.175 39.7891 272.308 35.3681 272.238 30.8812C272.238 26.3943 275.315 21.7754 281.958 21.7754C284.406 21.7754 286.783 22.6332 288.671 24.4148L286.364 26.5262C285.175 25.4045 283.566 24.8766 281.958 24.8766C277.552 24.8766 275.664 27.9779 275.664 30.8812C275.664 33.7185 277.413 36.6878 281.958 36.6878C283.566 36.6878 285.385 36.094 286.573 34.9062L288.881 37.2157Z" fill="#C3E5D3"/>
<path d="M313.986 39.418H300.28C300.28 33.6764 300.28 27.9349 300.28 22.1934H313.986V25.3611H303.706V29.3208H313.636V32.3565H303.706V36.2502H313.986V39.418Z" fill="#C3E5D3"/>
<path d="M4.47552 15.9738V19.0088L15.6643 14.3243V11.0254L4.47552 15.9738Z" fill="#C3E5D3"/>
<path d="M27.4825 26.4609V29.5656L37.6224 33.0005V30.094L27.4825 26.4609Z" fill="#C3E5D3"/>
<path d="M0.20979 14.9127C0.34965 14.8467 0.489511 14.9127 0.489511 15.0446V58.463L2.51748 59.1888V13.9229C2.51748 13.8569 2.51748 13.7909 2.58741 13.7909L18.1818 6.59853V16.4963C18.1818 16.5623 18.1119 16.6283 18.1119 16.6283L4.61539 21.9731C4.54545 21.9731 4.54545 22.0391 4.54545 22.1051V59.9806L6.64336 60.7724V27.4499C6.64336 27.3839 6.71329 27.3179 6.71329 27.3179L8.53147 26.6581C8.6014 26.5921 8.74126 26.724 8.74126 26.79V61.5643L10.979 62.4221V25.8662C10.979 25.8002 11.049 25.7343 11.049 25.7343L13.0769 25.0084C13.2168 24.9424 13.2867 25.0744 13.2867 25.1404V63.2139L15.6643 64.0717V24.2826C15.6643 24.2166 15.7343 24.1506 15.7343 24.1506L17.8322 23.4248C17.9021 23.3588 18.042 23.4908 18.042 23.5567V65.1275L20.4895 66.0513V22.501C20.4895 22.435 20.5594 22.369 20.5594 22.369L22.5874 21.6432C22.6573 21.5772 22.7972 21.7092 22.7972 21.7751V65.0615L25.1049 64.2037V22.633C25.1049 22.501 25.2448 22.435 25.3147 22.501L39.3007 27.7798C39.3706 27.7798 39.3706 27.8458 39.3706 27.9118V36.2259C39.3706 36.3579 39.2308 36.4239 39.1608 36.3579L27.5525 32.7287C27.4825 32.7287 27.3427 32.7947 27.3427 32.8607V63.3459L29.5105 62.5541V36.6218C29.5105 36.4899 29.5804 36.4239 29.7203 36.4899L31.5385 37.0177C31.6084 37.0177 31.6783 37.0837 31.6783 37.1497V61.8282L33.7063 61.1024V37.8756C33.7063 37.7436 33.7762 37.6776 33.9161 37.7436L35.5944 38.2055C35.6643 38.2055 35.7343 38.2715 35.7343 38.3375V60.3765L37.6224 59.6507V38.9313C37.6224 38.7993 37.6923 38.7334 37.8322 38.7993L39.3706 39.2612C39.4406 39.2612 39.5105 39.3272 39.5105 39.3932V58.9249L41.3287 58.265V28.3077V22.567C41.3287 22.501 41.2587 22.435 41.2587 22.435L35.8042 20.1255C35.7343 20.1255 35.7343 20.0595 35.7343 19.9935V14.9787C35.7343 14.8467 35.8741 14.7807 35.9441 14.8467C36.0839 14.9127 36.1539 14.8467 36.1539 14.7147V9.17195C36.1539 9.10597 36.1538 9.03998 36.0839 9.03998L18.1818 0C18.1119 0 18.1119 0 18.042 0L0.0699301 9.10597C0 9.10597 0 9.17196 0 9.23794V14.7807C0 14.8467 0.13986 14.9787 0.20979 14.9127ZM20.5594 11.2835C20.5594 11.1515 20.6993 11.0855 20.7692 11.1515L33.6364 16.8262C33.7063 16.8262 33.7063 16.8922 33.7063 16.9582V19.0697C33.7063 19.2017 33.5664 19.2677 33.4965 19.2017L22.9371 14.7147C22.8671 14.7147 22.8671 14.7147 22.7972 14.7147L22.1678 14.9787C22.0979 14.9787 22.0979 14.9787 22.028 14.9787L20.5594 14.3848C20.4895 14.3848 20.4895 14.3188 20.4895 14.2528V11.2835H20.5594Z" fill="#C3E5D3"/>
<path d="M68.1818 54.2571V57.4248H67.4126V48.1855C68.8112 48.1855 70.2797 48.1855 71.6783 48.1855C75.9441 48.1855 75.9441 54.2571 71.6783 54.2571H68.1818ZM68.1818 48.8455V53.5971H71.7483C75.035 53.5971 75.035 48.8455 71.7483 48.8455H68.1818Z" fill="#C3E5D3"/>
<path d="M102.378 57.4912H101.399L98.0419 53.9933H95.3846V57.4912H94.6154V48.1855C96.0839 48.1855 97.4825 48.1855 98.951 48.1855C101.049 48.1855 102.168 49.6375 102.168 51.0894C102.168 52.6074 101.119 53.9273 99.021 53.9273L102.378 57.4912ZM95.3846 53.2674H98.8811C100.559 53.2674 101.329 52.3434 101.329 51.0894C101.329 50.0335 100.559 48.9115 98.951 48.9115H95.3846V53.2674Z" fill="#C3E5D3"/>
<path d="M131.189 52.8655C131.189 55.3089 129.511 57.6201 126.224 57.6201C122.937 57.6201 121.259 55.2428 121.259 52.7995C121.259 50.2901 122.867 48.0449 126.224 48.0449C129.511 48.0449 131.189 50.3562 131.189 52.8655ZM122.028 52.7995C122.028 54.9126 123.427 56.8937 126.224 56.8937C129.021 56.8937 130.42 54.8466 130.42 52.7995C130.42 50.6864 129.021 48.7053 126.224 48.7053C123.427 48.7053 122.028 50.6203 122.028 52.7995Z" fill="#C3E5D3"/>
<path d="M151.748 54.2571V57.4248H150.979V48.1855C152.378 48.1855 153.846 48.1855 155.245 48.1855C159.51 48.1855 159.51 54.2571 155.245 54.2571H151.748ZM151.748 48.8455V53.5971H155.315C158.601 53.5971 158.601 48.8455 155.315 48.8455H151.748Z" fill="#C3E5D3"/>
<path d="M178.951 52.4752H184.685V53.1351H178.951V56.7649H185.105V57.4248H178.182V48.1855H184.965V48.8455H178.951V52.4752Z" fill="#C3E5D3"/>
<path d="M212.657 57.4912H211.678L208.322 53.9933H205.594V57.4912H204.825V48.1855C206.294 48.1855 207.692 48.1855 209.161 48.1855C211.259 48.1855 212.378 49.6375 212.378 51.0894C212.378 52.6074 211.329 53.9273 209.231 53.9273L212.657 57.4912ZM205.594 53.2674H209.091C210.769 53.2674 211.538 52.3434 211.538 51.0894C211.538 50.0335 210.769 48.9115 209.161 48.9115H205.594V53.2674Z" fill="#C3E5D3"/>
<path d="M235.175 48.8455H231.608V48.1855H239.44V48.8455H235.874V57.4248H235.105V48.8455H235.175Z" fill="#C3E5D3"/>
<path d="M258.951 57.4912V48.1855H259.72V57.4252H258.951V57.4912Z" fill="#C3E5D3"/>
<path d="M280.629 52.4752H286.364V53.1351H280.629V56.7649H286.783V57.4248H279.86V48.1855H286.643V48.8455H280.629V52.4752Z" fill="#C3E5D3"/>
<path d="M313.147 49.9523C312.448 48.8963 311.259 48.6983 310.21 48.6983C309.091 48.6983 307.273 49.0943 307.273 50.5463C307.273 51.7344 308.601 51.9984 310.28 52.2624C312.168 52.5924 314.126 52.9224 314.126 54.9025C314.126 57.0145 311.888 57.4766 310.28 57.4766C308.741 57.4766 306.993 56.8825 306.294 55.4965L306.993 55.1665C307.622 56.2885 309.161 56.8165 310.35 56.8165C311.538 56.8165 313.497 56.4865 313.497 54.8365C313.497 53.4504 311.888 53.1204 310.28 52.8564C308.462 52.5264 306.643 52.1964 306.643 50.4803C306.573 48.5003 308.741 47.9062 310.35 47.9062C311.748 47.9062 312.937 48.1043 313.916 49.4903L313.147 49.9523Z" fill="#C3E5D3"/>
</svg>
