<svg width="1240" height="1000" viewBox="0 0 1240 1000" fill="none" xmlns="http://www.w3.org/2000/svg">
<g opacity="0.1">
<path d="M884.4 864.749L884.4 0L819 0L819 896.874L884.4 864.749Z" fill="#DDDDDD"/>
<path d="M609.8 0L534.8 0L534.8 963.125L609.1 1000L609.8 999.625L609.8 0Z" fill="#DDDDDD"/>
<path d="M751.1 930.25L751.1 0L681.3 0L681.3 964.5L751.1 930.25Z" fill="#DDDDDD"/>
<path d="M1128.2 745L1128.2 0L1069.9 0L1069.9 773.625L1128.2 745Z" fill="#DDDDDD"/>
<path d="M1009.9 803.124L1010.2 0L948.3 0L948.3 833.374L1009.9 803.124Z" fill="#DDDDDD"/>
<path d="M60.6 727.875L60.2999 0L0 0L3.62184e-05 697.75L60.6 727.875Z" fill="#DDDDDD"/>
<path d="M460.6 926.25L460.6 0L388.8 0L388.5 890.5L460.6 926.25Z" fill="#DDDDDD"/>
<path d="M1240 690.125L1239.8 0L1184.8 0L1184.8 717.25L1240 690.125Z" fill="#DDDDDD"/>
<path d="M318.6 855.876L318.6 0L251 0L251 822.376L318.6 855.876Z" fill="#DDDDDD"/>
<path d="M185.6 789.876L186.1 0L121.7 0L121.7 758.126L185.6 789.876Z" fill="#DDDDDD"/>
</g>
</svg>
